# xmcd
#
# Track frame offsets:
#	150
#	15471
#	34123
#	50011
#	66200
#	88555
#	105947
#	121836
#	137100
#	152958
#	171614
#	186393
#	203687
#	218187
#	235405
#	249796
# Disc length: 3547 seconds
# Revision: 1
# Processed by: cddbd v1.5.2PL0 Copyright (c) Steve Scherf et al.
#
# Submitted via: libkcddb 0.31
#
DISCID=dd0dd910
DTITLE=multiple - VA - Country Hits 2012 (2011)
DYEAR=2012
DGENRE=
TTITLE0=01-zac_brown_band-knee_deep_(feat._jimmy_buffett)
TTITLE1=02-sugarland-stuck_like_glue
TTITLE2=03-blake_shelton-honey_bee
TTITLE3=04-the_band_perry-you_lie
TTITLE4=05-paul_brandt-give_it_away
TTITLE5=06-justin_bieber-that_should_be_me_(feat._rascal_flatts)
TTITLE6=07-billy_currington-love_done_gone
TTITLE7=08-george_canyon-surrender
TTITLE8=09-trace_adkins-just_fishin
TTITLE9=10-emerson_drive-let_your_love_speak
TTITLE10=11-dean_brody-people_know_you_by_first_name
TTITLE11=12-terri_clark-northern_girl
TTITLE12=13-dierks_bentley-am_i_the_only_one
TTITLE13=14-jessie_farrell-turn_you_down
TTITLE14=15-joe_nichols-shape_im_in
TTITLE15=16-alison_krauss_and_union_station-paper_airplane
EXTD=
EXTT0=
EXTT1=
EXTT2=
EXTT3=
EXTT4=
EXTT5=
EXTT6=
EXTT7=
EXTT8=
EXTT9=
EXTT10=
EXTT11=
EXTT12=
EXTT13=
EXTT14=
EXTT15=
PLAYORDER=
